<?xml version="1.0" encoding="utf-8"?>
<!-- Generator: Adobe Illustrator 16.0.3, SVG Export Plug-In . SVG Version: 6.00 Build 0)  -->
<!DOCTYPE svg PUBLIC "-//W3C//DTD SVG 1.1//EN" "http://www.w3.org/Graphics/SVG/1.1/DTD/svg11.dtd">
<svg version="1.1" id="Capa_1" xmlns="http://www.w3.org/2000/svg" xmlns:xlink="http://www.w3.org/1999/xlink" x="0px" y="0px"
	 width="680.31px" height="566.93px" viewBox="0 0 680.31 566.93" enable-background="new 0 0 680.31 566.93" xml:space="preserve">
<polygon fill="#424242" points="162.526,86.198 238.03,156.379 256.396,143.279 179.872,68.419 209.461,68.419 209.461,46.896 
	139.06,46.896 139.06,116.143 161.506,116.143 "/>
<ellipse fill="none" stroke="#474546" stroke-width="12" stroke-miterlimit="10" cx="333.74" cy="220.921" rx="111.215" ry="104.803"/>
<path fill="#424242" d="M156.404,191.002c0,0,15.029-48.448,29.589-58.953l28.568,29.476c0,0-36.731,55.677,0,126.795
	l-29.079,31.814c0,0-28.059-43.044-29.079-58.952l-38.771-10.292v-53.337L156.404,191.002z"/>
<polygon fill="#424242" points="504.333,86.198 428.828,156.379 410.464,143.279 486.987,68.419 457.397,68.419 457.397,46.896 
	527.8,46.896 527.8,116.143 505.352,116.143 "/>
<path fill="#424242" d="M510.255,191.002c0,0-15.031-48.448-29.592-58.953l-28.566,29.476c0,0,36.73,55.677,0,126.795l29.078,31.814
	c0,0,28.061-43.044,29.08-58.952l38.771-10.292v-53.337L510.255,191.002z"/>
<path fill="#424242" d="M372.163,388.225c0,0,52.743-14.053,64.117-27.463l-32.299-26.035c0,0-60.504,33.994-138.251,0.701
	l-34.528,26.846c0,0,47.089,25.494,64.439,26.342l11.441,35.5l58.157-0.297L372.163,388.225z"/>
<path fill="#424242" d="M375.226,54.824c0,0,52.744,14.053,64.118,27.464l-32.298,26.036c0,0-60.506-33.994-138.252-0.702
	l-34.528-26.846c0,0,47.089-25.494,64.44-26.341l11.439-35.501l58.158,0.296L375.226,54.824z"/>
<polygon fill="#424242" points="499.252,360.799 423.647,290.709 405.301,303.832 481.933,378.598 452.345,378.635 452.376,400.156 
	522.777,400.07 522.676,330.824 500.228,330.852 "/>
<polygon fill="#424242" points="168.337,360.484 244.366,290.783 262.633,304 185.548,378.373 215.137,378.561 214.975,400.082 
	144.575,399.637 145.095,330.395 167.542,330.533 "/>
<g>
	<text transform="matrix(1.0904 0 0 1 250.2754 249.019)" fill="#424242" font-family="'Impact'" font-size="89.8319">AMV</text>
</g>
<g>
	<text transform="matrix(1.0904 0 0 1 97.0513 478.2783)"><tspan x="0" y="0" fill="#424242" font-family="'Impact'" font-size="42.1087">Agenda de Mantenimiento</tspan><tspan x="141.767" y="50.53" fill="#424242" font-family="'Impact'" font-size="42.1087">Vehicular</tspan></text>
</g>
<polyline fill="none" points="436.989,530.68 492.088,547.523 443.112,528.807 "/>
</svg>
